<svg width="22" height="21" viewBox="0 0 22 21" fill="none" xmlns="http://www.w3.org/2000/svg">
<path d="M3.40121 20.0506L17.6367 20.0506C19.88 20.0506 21.0482 18.8491 21.0482 16.5533L21.0482 3.49732C21.0482 1.20153 19.88 0 17.6367 0L3.40121 0C1.1682 0 0 1.19081 0 3.49732L0 16.5533C0 18.8491 1.1682 20.0506 3.40121 20.0506ZM3.39087 17.9157C2.53281 17.9157 2.05727 17.4544 2.05727 16.5104L2.05727 6.64062C2.05727 5.69656 2.53281 5.23526 3.39087 5.23526L17.647 5.23526C18.5051 5.23526 18.9806 5.69656 18.9806 6.64062L18.9806 16.5104C18.9806 17.4544 18.5051 17.9157 17.647 17.9157L3.39087 17.9157ZM8.52887 8.93641L9.13881 8.93641C9.51098 8.93641 9.63504 8.8184 9.63504 8.44292L9.63504 7.80997C9.63504 7.42377 9.51098 7.30576 9.13881 7.30576L8.52887 7.30576C8.1567 7.30576 8.03264 7.42377 8.03264 7.80997L8.03264 8.44292C8.03264 8.8184 8.1567 8.93641 8.52887 8.93641ZM11.9094 8.93641L12.5193 8.93641C12.8812 8.93641 13.0052 8.8184 13.0052 8.44292L13.0052 7.80997C13.0052 7.42377 12.8812 7.30576 12.5193 7.30576L11.9094 7.30576C11.5372 7.30576 11.4132 7.42377 11.4132 7.80997L11.4132 8.44292C11.4132 8.8184 11.5372 8.93641 11.9094 8.93641ZM15.2796 8.93641L15.8895 8.93641C16.2617 8.93641 16.3858 8.8184 16.3858 8.44292L16.3858 7.80997C16.3858 7.42377 16.2617 7.30576 15.8895 7.30576L15.2796 7.30576C14.9178 7.30576 14.7937 7.42377 14.7937 7.80997L14.7937 8.44292C14.7937 8.8184 14.9178 8.93641 15.2796 8.93641ZM5.15867 12.3908L5.75828 12.3908C6.13045 12.3908 6.2545 12.2728 6.2545 11.8866L6.2545 11.2537C6.2545 10.8782 6.13045 10.7602 5.75828 10.7602L5.15867 10.7602C4.7865 10.7602 4.66245 10.8782 4.66245 11.2537L4.66245 11.8866C4.66245 12.2728 4.7865 12.3908 5.15867 12.3908ZM8.52887 12.3908L9.13881 12.3908C9.51098 12.3908 9.63504 12.2728 9.63504 11.8866L9.63504 11.2537C9.63504 10.8782 9.51098 10.7602 9.13881 10.7602L8.52887 10.7602C8.1567 10.7602 8.03264 10.8782 8.03264 11.2537L8.03264 11.8866C8.03264 12.2728 8.1567 12.3908 8.52887 12.3908ZM11.9094 12.3908L12.5193 12.3908C12.8812 12.3908 13.0052 12.2728 13.0052 11.8866L13.0052 11.2537C13.0052 10.8782 12.8812 10.7602 12.5193 10.7602L11.9094 10.7602C11.5372 10.7602 11.4132 10.8782 11.4132 11.2537L11.4132 11.8866C11.4132 12.2728 11.5372 12.3908 11.9094 12.3908ZM15.2796 12.3908L15.8895 12.3908C16.2617 12.3908 16.3858 12.2728 16.3858 11.8866L16.3858 11.2537C16.3858 10.8782 16.2617 10.7602 15.8895 10.7602L15.2796 10.7602C14.9178 10.7602 14.7937 10.8782 14.7937 11.2537L14.7937 11.8866C14.7937 12.2728 14.9178 12.3908 15.2796 12.3908ZM5.15867 15.8345L5.75828 15.8345C6.13045 15.8345 6.2545 15.7165 6.2545 15.341L6.2545 14.7081C6.2545 14.3219 6.13045 14.2039 5.75828 14.2039L5.15867 14.2039C4.7865 14.2039 4.66245 14.3219 4.66245 14.7081L4.66245 15.341C4.66245 15.7165 4.7865 15.8345 5.15867 15.8345ZM8.52887 15.8345L9.13881 15.8345C9.51098 15.8345 9.63504 15.7165 9.63504 15.341L9.63504 14.7081C9.63504 14.3219 9.51098 14.2039 9.13881 14.2039L8.52887 14.2039C8.1567 14.2039 8.03264 14.3219 8.03264 14.7081L8.03264 15.341C8.03264 15.7165 8.1567 15.8345 8.52887 15.8345ZM11.9094 15.8345L12.5193 15.8345C12.8812 15.8345 13.0052 15.7165 13.0052 15.341L13.0052 14.7081C13.0052 14.3219 12.8812 14.2039 12.5193 14.2039L11.9094 14.2039C11.5372 14.2039 11.4132 14.3219 11.4132 14.7081L11.4132 15.341C11.4132 15.7165 11.5372 15.8345 11.9094 15.8345Z" fill="black" fill-opacity="0.5"/>
</svg>
