<svg width="23" height="19" viewBox="0 0 23 19" fill="none" xmlns="http://www.w3.org/2000/svg">
<path d="M15.69 9.33854C17.6543 9.33854 19.2519 7.21569 19.2519 4.61445C19.2519 2.04312 17.6625 0 15.69 0C13.7257 0 12.1119 2.07302 12.12 4.62442C12.1282 7.22566 13.7176 9.33854 15.69 9.33854ZM6.2434 9.56777C7.95504 9.56777 9.3488 7.70404 9.3488 5.41177C9.3488 3.16932 7.95504 1.35543 6.2434 1.35543C4.53992 1.35543 3.12985 3.19922 3.138 5.42173C3.14615 7.71401 4.53176 9.56777 6.2434 9.56777ZM15.69 7.62431C14.5571 7.62431 13.5953 6.30875 13.5953 4.62442C13.5953 2.98993 14.5489 1.72419 15.69 1.72419C16.8311 1.72419 17.7766 2.96999 17.7766 4.61445C17.7766 6.28881 16.823 7.62431 15.69 7.62431ZM6.2434 7.87347C5.31423 7.87347 4.52361 6.78713 4.52361 5.42173C4.52361 4.11613 5.30608 3.04973 6.2434 3.04973C7.18888 3.04973 7.96319 4.0962 7.96319 5.41177C7.96319 6.78713 7.18073 7.87347 6.2434 7.87347ZM1.75239 18.7269L8.08545 18.7269C7.64532 18.4179 7.34374 17.7004 7.4008 17.0426L1.66273 17.0426C1.50787 17.0426 1.44267 16.9629 1.44267 16.7835C1.44267 14.4912 3.64334 12.2986 6.23525 12.2986C7.15628 12.2986 8.06915 12.5776 8.77826 13.066C9.05538 12.5876 9.38956 12.179 9.82969 11.8202C8.79456 11.0328 7.51491 10.6142 6.23525 10.6142C2.79568 10.6142 0 13.6341 0 16.9429C0 18.119 0.586847 18.7269 1.75239 18.7269ZM10.604 18.7269L20.7679 18.7269C22.1698 18.7269 22.8463 18.1887 22.8463 17.0226C22.8463 14.2919 20.0588 10.6242 15.6819 10.6242C11.305 10.6242 8.51744 14.2919 8.51744 17.0226C8.51744 18.1887 9.19394 18.7269 10.604 18.7269ZM10.3269 17.0027C10.1394 17.0027 10.0661 16.933 10.0661 16.7436C10.0661 15.2187 12.0793 12.3484 15.6819 12.3484C19.2845 12.3484 21.3058 15.2187 21.3058 16.7436C21.3058 16.933 21.2243 17.0027 21.0368 17.0027L10.3269 17.0027Z" fill="black" fill-opacity="0.5"/>
</svg>
